<?xml version="1.0" encoding="UTF-8"?>
<svg width="600px" height="600px" viewBox="0 0 600 600" version="1.1" xmlns="http://www.w3.org/2000/svg" xmlns:xlink="http://www.w3.org/1999/xlink">
    <title>Group 17</title>
    <defs>
        <linearGradient x1="5.88362658%" y1="82.1734915%" x2="50.3375563%" y2="31.2987443%" id="linearGradient-1">
            <stop stop-color="#AA771C" offset="0%"></stop>
            <stop stop-color="#EBDC96" offset="48.6633575%"></stop>
            <stop stop-color="#B38728" offset="57.1160026%"></stop>
            <stop stop-color="#FCF6BA" offset="65.0824897%"></stop>
            <stop stop-color="#E6BF32" offset="100%"></stop>
        </linearGradient>
        <linearGradient x1="32.0779787%" y1="115.833872%" x2="50.1371303%" y2="11.733215%" id="linearGradient-2">
            <stop stop-color="#AA771C" offset="0%"></stop>
            <stop stop-color="#EBDC96" offset="19.0160014%"></stop>
            <stop stop-color="#B38728" offset="53.0003851%"></stop>
            <stop stop-color="#FCF6BA" offset="65.0824897%"></stop>
            <stop stop-color="#E6BF32" offset="100%"></stop>
        </linearGradient>
        <linearGradient x1="5.88362658%" y1="98.8480056%" x2="50%" y2="-31.8732861%" id="linearGradient-3">
            <stop stop-color="#AA771C" offset="0%"></stop>
            <stop stop-color="#EBDC96" offset="26.2717024%"></stop>
            <stop stop-color="#B38728" offset="49.3225391%"></stop>
            <stop stop-color="#FCF6BA" offset="65.0824897%"></stop>
            <stop stop-color="#E6BF32" offset="100%"></stop>
        </linearGradient>
        <linearGradient x1="-26.9330021%" y1="153.088084%" x2="217.312161%" y2="-41.3939024%" id="linearGradient-4">
            <stop stop-color="#AA771C" offset="0%"></stop>
            <stop stop-color="#EBDC96" offset="28.01554%"></stop>
            <stop stop-color="#B38728" stop-opacity="0.802165852" offset="39.0007748%"></stop>
            <stop stop-color="#FCF6BA" offset="53.6093448%"></stop>
            <stop stop-color="#E6BF32" offset="100%"></stop>
        </linearGradient>
        <linearGradient x1="-26.9330021%" y1="118.811718%" x2="217.312161%" y2="-11.0058041%" id="linearGradient-5">
            <stop stop-color="#AA771C" offset="0%"></stop>
            <stop stop-color="#EBDC96" offset="28.01554%"></stop>
            <stop stop-color="#B38728" stop-opacity="0.802165852" offset="39.0007748%"></stop>
            <stop stop-color="#FCF6BA" offset="53.6093448%"></stop>
            <stop stop-color="#E6BF32" offset="100%"></stop>
        </linearGradient>
        <linearGradient x1="-25.9042121%" y1="207.116098%" x2="215.074772%" y2="-89.2930471%" id="linearGradient-6">
            <stop stop-color="#AA771C" offset="0%"></stop>
            <stop stop-color="#EBDC96" offset="28.01554%"></stop>
            <stop stop-color="#B38728" stop-opacity="0.802165852" offset="39.0007748%"></stop>
            <stop stop-color="#FCF6BA" offset="53.6093448%"></stop>
            <stop stop-color="#E6BF32" offset="100%"></stop>
        </linearGradient>
        <linearGradient x1="7.74584761%" y1="207.116098%" x2="141.893379%" y2="-89.2930471%" id="linearGradient-7">
            <stop stop-color="#AA771C" offset="0%"></stop>
            <stop stop-color="#EBDC96" offset="28.01554%"></stop>
            <stop stop-color="#B38728" stop-opacity="0.802165852" offset="39.0007748%"></stop>
            <stop stop-color="#FCF6BA" offset="53.6093448%"></stop>
            <stop stop-color="#E6BF32" offset="100%"></stop>
        </linearGradient>
        <linearGradient x1="-3.60646728%" y1="207.116098%" x2="166.582138%" y2="-89.2930471%" id="linearGradient-8">
            <stop stop-color="#AA771C" offset="0%"></stop>
            <stop stop-color="#EBDC96" offset="28.01554%"></stop>
            <stop stop-color="#B38728" stop-opacity="0.802165852" offset="39.0007748%"></stop>
            <stop stop-color="#FCF6BA" offset="53.6093448%"></stop>
            <stop stop-color="#E6BF32" offset="100%"></stop>
        </linearGradient>
        <linearGradient x1="-26.9330021%" y1="117.69109%" x2="217.312161%" y2="-10.0122985%" id="linearGradient-9">
            <stop stop-color="#AA771C" offset="0%"></stop>
            <stop stop-color="#EBDC96" offset="28.01554%"></stop>
            <stop stop-color="#B38728" stop-opacity="0.802165852" offset="39.0007748%"></stop>
            <stop stop-color="#FCF6BA" offset="53.6093448%"></stop>
            <stop stop-color="#E6BF32" offset="100%"></stop>
        </linearGradient>
        <linearGradient x1="-26.9330021%" y1="81.5216958%" x2="217.312161%" y2="22.0540853%" id="linearGradient-10">
            <stop stop-color="#AA771C" offset="0%"></stop>
            <stop stop-color="#EBDC96" offset="28.01554%"></stop>
            <stop stop-color="#B38728" stop-opacity="0.802165852" offset="39.0007748%"></stop>
            <stop stop-color="#FCF6BA" offset="53.6093448%"></stop>
            <stop stop-color="#E6BF32" offset="100%"></stop>
        </linearGradient>
        <linearGradient x1="-26.9330021%" y1="111.601458%" x2="217.312161%" y2="-4.61346658%" id="linearGradient-11">
            <stop stop-color="#AA771C" offset="0%"></stop>
            <stop stop-color="#EBDC96" offset="28.01554%"></stop>
            <stop stop-color="#B38728" stop-opacity="0.802165852" offset="39.0007748%"></stop>
            <stop stop-color="#FCF6BA" offset="53.6093448%"></stop>
            <stop stop-color="#E6BF32" offset="100%"></stop>
        </linearGradient>
        <linearGradient x1="-26.9330021%" y1="116.607668%" x2="50%" y2="-40.0158895%" id="linearGradient-12">
            <stop stop-color="#AA771C" offset="0%"></stop>
            <stop stop-color="#EBDC96" offset="28.01554%"></stop>
            <stop stop-color="#B38728" stop-opacity="0.802165852" offset="39.0007748%"></stop>
            <stop stop-color="#FCF6BA" offset="53.6093448%"></stop>
            <stop stop-color="#E6BF32" offset="100%"></stop>
        </linearGradient>
        <polygon id="path-13" points="0 0 213 0 213 14 0 14"></polygon>
        <linearGradient x1="-26.9330021%" y1="50.6778113%" x2="217.312161%" y2="49.3990788%" id="linearGradient-15">
            <stop stop-color="#AA771C" offset="0%"></stop>
            <stop stop-color="#EBDC96" offset="28.01554%"></stop>
            <stop stop-color="#B38728" stop-opacity="0.802165852" offset="39.0007748%"></stop>
            <stop stop-color="#FCF6BA" offset="53.6093448%"></stop>
            <stop stop-color="#E6BF32" offset="100%"></stop>
        </linearGradient>
        <polygon id="path-16" points="0 0 39.3333333 0 39.3333333 39.6666667 0 39.6666667"></polygon>
        <linearGradient x1="50.3425406%" y1="114.231016%" x2="50.3425406%" y2="34.8344852%" id="linearGradient-18">
            <stop stop-color="#A26B29" offset="0%"></stop>
            <stop stop-color="#E6BF32" offset="100%"></stop>
        </linearGradient>
        <polygon id="path-19" points="0 0 24 0 24 24.6666667 0 24.6666667"></polygon>
        <linearGradient x1="14.3436427%" y1="156.591459%" x2="50.3366566%" y2="11.733215%" id="linearGradient-21">
            <stop stop-color="#AA771C" offset="0%"></stop>
            <stop stop-color="#EBDC96" offset="54.3333448%"></stop>
            <stop stop-color="#B38728" offset="60.6955694%"></stop>
            <stop stop-color="#FCF6BA" offset="71.531575%"></stop>
            <stop stop-color="#E6BF32" offset="100%"></stop>
        </linearGradient>
    </defs>
    <g id="Page-1" stroke="none" stroke-width="1" fill="none" fill-rule="evenodd">
        <g id="Group-17">
            <rect id="Rectangle" fill="#FFFFFF" fill-rule="nonzero" x="0" y="0" width="600" height="599.999985"></rect>
            <g id="Path" transform="translate(128.180300, 274.839805)" fill="url(#linearGradient-1)">
                <path d="M194.184964,10.5418199 C194.809964,11.0418199 195.372464,11.6147359 195.872464,12.2501532 C196.372464,12.8751532 196.711005,13.6355705 196.893297,14.5209865 C197.070381,15.4949452 196.737048,16.2501532 195.893297,16.7918199 C195.377672,17.0574452 194.872464,17.1043199 194.372464,16.9376532 C193.88288,16.7605705 193.528715,16.3907785 193.309964,15.8334865 C192.695381,14.3074452 191.809964,13.1147359 190.643297,12.2501532 C189.487048,11.3751532 188.231839,10.6147359 186.872464,9.95848654 C183.88288,8.48973587 180.799547,7.30744521 177.622464,6.41681987 C174.455797,5.53140254 171.273505,4.76577854 168.080797,4.12515321 C162.747464,3.14077854 155.648505,2.59390387 146.789131,2.47931987 C137.940172,2.36994521 128.101631,2.76057054 117.268297,3.64598654 C106.434964,4.52098654 95.3516306,5.97411187 84.0182973,8.00015321 C72.6953813,10.0157785 61.88288,12.6668199 51.5807973,15.9584865 C41.2891306,19.2501532 32.2682973,23.2397359 24.5182973,27.9168199 C16.7682973,32.5991119 11.0391306,38.0418199 7.33079729,44.2501532 C4.23704796,49.6251532 3.74225596,55.2293199 5.85163062,61.0626532 C7.35163062,65.0522372 9.45579729,68.6616119 12.1641306,71.8959865 C16.2162133,76.7449452 20.684964,81.1668199 25.559964,85.1668199 C29.6432973,88.6980692 33.7735053,92.2449452 37.9557973,95.8126532 C42.00788,99.2189039 46.0703813,102.677237 50.1432973,106.187653 C54.684964,110.135571 59.1485053,114.140779 63.5391306,118.208487 C63.940172,118.583487 64.362048,118.958487 64.809964,119.333487 C67.184964,121.427237 69.2787146,123.770987 71.1016306,126.35432 C72.987048,129.312653 73.3985053,131.630361 72.3307973,133.312653 C71.25788,134.989736 69.1693386,136.16682 66.059964,136.833487 C62.9610053,137.500153 59.3412133,137.770987 55.2057973,137.645987 C51.0807973,137.531403 46.9193386,137.125153 42.7266306,136.41682 C38.5287146,135.718904 34.7943386,134.85432 31.5182973,133.812653 C28.237048,132.770987 25.9193386,131.672028 24.559964,130.520987 C21.8203813,128.10432 21.5807973,125.47932 23.8307973,122.645987 C26.247464,119.755361 29.247464,117.614736 32.8307973,116.22932 C37.997464,114.078279 43.2682973,113.781403 48.6432973,115.333487 C49.684964,115.682445 50.684964,116.145987 51.6432973,116.72932 C51.737048,116.770987 51.8203813,116.82307 51.8932973,116.895987 C52.1537146,117.020987 52.3360053,117.218904 52.434964,117.500153 C52.5443386,117.79182 52.502672,118.093904 52.309964,118.41682 C51.9037146,118.942861 51.3985053,119.109528 50.7891306,118.91682 C50.2057973,118.718904 49.6485053,118.47932 49.122464,118.187653 C45.372464,116.437653 41.5495466,116.156403 37.6641306,117.333487 C33.7891306,118.510571 30.5443386,120.734528 27.934964,124.000153 C26.809964,125.583487 26.7891306,126.937653 27.872464,128.062653 C28.9557973,129.198069 30.5860053,130.135571 32.7682973,130.875153 C34.9610053,131.625153 37.1641306,132.198069 39.372464,132.60432 C41.5807973,133.005361 43.2162133,133.276195 44.2891306,133.41682 C44.497464,133.41682 44.6485053,133.427237 44.747464,133.458487 C44.9557973,133.458487 45.2057973,133.47932 45.497464,133.520987 C46.8985053,133.797028 48.7995466,134.073069 51.2057973,134.35432 C53.622464,134.630361 56.1068386,134.797028 58.6641306,134.85432 C61.2318386,134.906403 63.4193386,134.677237 65.2266306,134.16682 C67.0443386,133.651195 68.0495466,132.718904 68.247464,131.375153 C68.4557973,130.026195 67.38288,128.073069 65.0391306,125.520987 C62.5391306,122.797028 59.9037146,120.156403 57.1432973,117.60432 C50.2787146,111.286612 43.252672,105.16682 36.059964,99.2501532 C33.4453813,97.0574452 30.8516306,94.8543199 28.2682973,92.6459865 C23.9453813,88.9689039 19.6953813,85.1980692 15.5182973,81.3334865 C11.6432973,77.7657785 8.20579729,73.8282785 5.20579729,69.5209865 C3.07038129,66.3855705 1.53913062,62.9897359 0.622463958,59.3334865 C-0.778577375,53.3491119 0.184963958,47.7501532 3.51829729,42.5418199 C7.17454662,36.7241119 12.5495466,31.5209865 19.6432973,26.9376532 C26.752672,22.3543199 35.0182973,18.3855705 44.434964,15.0209865 C53.862048,11.6459865 63.9245466,8.84911187 74.622464,6.62515321 C85.3307973,4.40640254 96.1641306,2.75015321 107.122464,1.66681987 C118.080797,0.573069205 128.601631,0.0157785386 138.684964,0 C148.768297,-0.010264128 157.903715,0.510570539 166.101631,1.56265321 C174.294339,2.61994521 181.028715,4.19806921 186.309964,6.29181987 C189.112048,7.28140254 191.737048,8.69806921 194.184964,10.5418199 Z"></path>
            </g>
            <g id="Path" transform="translate(188.636145, 334.995884)" fill="url(#linearGradient-2)">
                <path d="M33.25,36.8318958 C33.4270827,37.0818958 33.4791667,37.3423131 33.3958333,37.6027291 C33.3125,37.8683544 33.135416,38.1027291 32.875,38.3110624 C31.2916667,39.8006464 29.505208,40.9933544 27.5208333,41.8943958 C24.1458333,43.5506464 20.5833333,44.5975211 16.8333333,45.0402291 C13.875,45.4048118 11.0520827,45.0141878 8.375,43.8735624 C7.375,43.4464784 6.64583333,43.6964784 6.1875,44.6235624 C5.5625,45.9152291 4.90625067,47.2173131 4.20833333,48.5193958 C3.864584,49.2589798 3.489584,50.0141878 3.08333333,50.7902291 C3.04166667,50.8891878 2.994792,50.9933544 2.9375,51.1027291 C2.80208267,51.3683544 2.65625067,51.6235624 2.5,51.8735624 C2.34895867,52.1131451 2.08333333,52.2798118 1.70833333,52.3735624 C1.51562533,52.4152291 1.3125,52.4464784 1.10416667,52.4568958 C0.895833333,52.4568958 0.708333333,52.4100211 0.541666667,52.3110624 C0.406250667,52.2016878 0.286458667,52.0506464 0.1875,51.8527291 C0.0781253333,51.6600211 0.0156253333,51.4568958 0,51.2485624 C0.140625333,50.5558544 0.354166667,49.8839798 0.645833333,49.2277291 C1.28645867,47.7173131 1.91145867,46.2225211 2.52083333,44.7485624 C4.05208267,41.0141878 5.66145867,37.3318958 7.35416667,33.7068958 C12.005208,23.6391878 16.4270827,13.4933544 20.625,3.26939576 C20.9583333,2.2850211 21.4218747,1.39439576 22.0208333,0.602729095 C22.4791667,0.0350210951 23.114584,-0.131645572 23.9375,0.102729095 C24.7812507,0.436062428 25.0625,1.0350211 24.7708333,1.89439576 C24.2291667,3.63397976 23.6458333,5.38918776 23.0208333,7.1652291 C19.9062507,15.2641878 16.489584,23.2173131 12.7708333,31.0193958 C11.989584,32.7016878 11.7187493,33.7589798 11.9583333,34.1860624 C12.192708,34.6183544 12.739584,34.6443958 13.6041667,34.2693958 C14.4635413,33.8839798 15.4635413,33.3683544 16.6041667,32.7277291 C17.4062507,32.2589798 18.2187493,31.8318958 19.0416667,31.4568958 C19.2083333,31.3475211 19.3593747,31.2693958 19.5,31.2277291 C20.4687493,30.6443958 21.5312507,30.3214784 22.6875,30.2485624 C23.130208,30.2381451 23.4583333,30.4256464 23.6666667,30.8110624 C23.7916667,31.0766878 23.7968747,31.3058544 23.6875,31.4985624 C23.5885413,31.6808544 23.4583333,31.8214784 23.2916667,31.9152291 C21.567708,32.9881451 19.8125,33.9985624 18.0208333,34.9568958 C17.1562507,35.3735624 16.260416,35.8318958 15.3333333,36.3318958 C14.4270827,36.7641878 13.5312507,37.2225211 12.6458333,37.7068958 C12.0468747,38.0714784 11.489584,38.4933544 10.9791667,38.9777291 C9.8125,40.2277291 9.96354133,41.2589798 11.4375,42.0610624 C12.6458333,42.5610624 13.8437493,42.8110624 15.0416667,42.8110624 C16.25,42.8006464 17.4479173,42.6339798 18.6458333,42.3110624 C22.3385413,41.4256464 25.7968747,40.0089798 29.0208333,38.0610624 C29.2708333,37.9256464 29.5260413,37.7902291 29.7916667,37.6652291 C30.385416,37.2641878 31.0260413,36.9048118 31.7083333,36.5818958 C31.9583333,36.4568958 32.2343747,36.4100211 32.5416667,36.4360624 C32.8437493,36.4516878 33.0833333,36.5818958 33.25,36.8318958 Z"></path>
            </g>
            <g id="Shape" transform="translate(188.568931, 363.971374)" fill="url(#linearGradient-3)">
                <path d="M58.300726,7.12596095 C58.618434,7.72491962 58.123642,8.64679429 56.8215593,9.89679429 C55.5298926,11.136377 53.243434,12.6572116 49.9673926,14.4592943 C48.7173926,15.000961 47.8111433,15.433253 47.2590593,15.750961 C46.7017673,16.058253 46.300726,16.4488783 46.050726,16.9176276 C45.800726,17.375961 45.5298926,18.1051276 45.238226,19.1051276 C44.988226,19.8290863 44.6601006,20.8030436 44.2590593,22.0217943 C43.7173926,23.5374196 43.175726,25.0947103 42.6340593,26.688461 C41.6444766,29.9645023 40.4673926,33.1988783 39.0923926,36.3967943 C37.7173926,39.5895023 35.9153086,42.386377 33.6965593,44.7926276 C31.488226,47.193669 28.613226,48.7978356 25.0715593,49.6051276 C21.5194766,50.3395023 18.0715593,50.490545 14.738226,50.063461 C11.4048926,49.6467943 8.14447662,48.761377 4.94655928,47.4176276 C3.64447662,46.8447103 2.46739262,46.0895023 1.42572595,45.1467943 C-0.308648715,43.4072116 -0.459691382,41.443669 0.967392618,39.250961 C1.71739262,38.1676276 2.60801795,37.1780436 3.63405928,36.2926276 C5.67572595,34.6103356 7.81635128,33.063461 10.050726,31.6467943 C14.2069753,29.063461 18.4621846,26.688461 22.8215593,24.5217943 C27.170518,22.3447103 31.5611433,20.240545 36.0090593,18.2092943 C36.3111433,18.058253 36.6548926,17.8967943 37.0298926,17.7301276 C38.238226,17.1624196 39.488226,16.5790863 40.7798926,15.9801276 C41.6548926,15.6624196 42.238226,15.058253 42.5298926,14.1676276 C42.613226,13.865545 42.6340593,13.5842943 42.5923926,13.3342943 C42.550726,13.1676276 42.4569753,13.0790863 42.3215593,13.063461 C42.1965593,13.0374196 42.050726,13.0738783 41.8840593,13.1676276 C41.4361433,13.433253 40.97781,13.7301276 40.5090593,14.063461 C40.2694766,14.2197103 39.998642,14.3967943 39.6965593,14.6051276 C38.0976006,15.563461 36.430934,15.995753 34.6965593,15.8967943 C31.9465593,15.938461 30.5298926,14.7301276 30.4465593,12.2717943 C30.363226,10.245753 30.6861433,8.32908629 31.4048926,6.52179429 C32.123642,4.71971029 33.1548926,3.00096095 34.488226,1.37596095 C34.623642,1.20929429 34.8215593,1.07908629 35.0715593,0.98012762 C35.3319753,0.870752954 35.5923926,0.78741962 35.8423926,0.73012762 C35.8944766,0.73012762 35.9569753,0.704086287 36.0298926,0.646794287 C36.5403086,0.60512762 36.9361433,0.740544954 37.2173926,1.04262762 C37.5090593,1.33429429 37.5767673,1.71971029 37.425726,2.18846095 C37.118434,2.85512762 36.8215593,3.53221162 36.5298926,4.20929429 C36.2642673,4.72491962 36.0142673,5.24575295 35.7798926,5.77179429 C34.7642673,7.80304362 34.3215593,9.91762762 34.4465593,12.125961 C34.5142673,12.5842943 34.72781,12.9176276 35.0923926,13.125961 C35.4517673,13.3342943 35.868434,13.3238783 36.3423926,13.0842943 C37.7017673,12.5165863 38.8892673,11.7092943 39.9048926,10.6676276 C42.6653086,8.08429429 44.925726,5.13637695 46.675726,1.81346095 C46.9361433,1.34471029 47.238226,0.948878287 47.5715593,0.625960954 C47.9048926,0.29262762 48.3476006,0.0947102869 48.9048926,0.0217942869 C49.6392673,-0.0615390465 50.2017673,0.0947102869 50.5923926,0.48012762 C50.97781,0.870752954 51.0976006,1.37596095 50.9465593,2.00096095 C50.3215593,4.11554495 49.6601006,6.20929429 48.9673926,8.29262762 C48.9101006,8.45929429 48.8476006,8.61554495 48.7798926,8.75096095 C48.5976006,9.20929429 48.425726,9.70408629 48.2590593,10.2301276 C48.10281,10.761377 48.0298926,11.2197103 48.0298926,11.6051276 C48.0403086,11.9801276 48.2173926,12.1624196 48.550726,12.1467943 C49.8423926,11.886377 51.7069753,10.8342943 54.1548926,9.00096095 C56.5976006,7.15721162 57.97781,6.53221162 58.300726,7.12596095 Z M40.050726,21.4801276 C40.050726,21.370753 40.0923926,21.2665863 40.175726,21.1676276 C40.3111433,20.9176276 40.3892673,20.6415863 40.4048926,20.3342943 C40.4153086,20.0322116 40.3319753,19.7092943 40.1548926,19.375961 C39.988226,19.375961 39.85281,19.375961 39.7590593,19.375961 C39.425726,19.4592943 39.1340593,19.5530436 38.8840593,19.6467943 C38.368434,19.8551276 37.85281,20.0999196 37.3423926,20.375961 C33.243434,22.3238783 29.1496846,24.3290863 25.050726,26.3967943 C20.9413513,28.4801276 16.925726,30.6780436 13.0090593,33.000961 C10.608018,34.4176276 8.35801795,36.063461 6.25905928,37.938461 C4.54030862,39.5217943 3.72780995,40.886377 3.82155928,42.0426276 C3.90489262,43.2092943 4.93614328,44.240545 6.90489262,45.1467943 C11.420518,47.4072116 16.248642,48.2926276 21.3840593,47.7926276 C24.9153086,47.4020023 27.7538513,46.0426276 29.9048926,43.7092943 C32.055934,41.386377 33.805934,38.615545 35.1548926,35.3967943 C36.5142673,32.1728356 37.6861433,28.9645023 38.675726,25.7717943 C39.10281,24.2717943 39.5611433,22.8447103 40.050726,21.4801276 Z"></path>
            </g>
            <g id="Path" transform="translate(266.372498, 363.409919)" fill="url(#linearGradient-4)">
                <path d="M21.7003885,4.18848805 C21.5024725,5.80307072 20.7524725,6.85515472 19.4503885,7.35515472 C18.1430965,7.85515472 17.7108059,7.21973738 18.1587219,5.43848805 C18.6170552,3.64682138 17.8097632,3.19890538 15.7420552,4.08432138 C13.6847632,4.95932138 11.9816379,6.07390538 10.6378885,7.41765472 C8.59622187,9.53223872 6.78372187,11.813488 5.20038854,14.2718214 C5.03372187,14.4801547 4.90872187,14.6572387 4.82538854,14.7926547 C4.35663787,15.4749467 3.88268054,16.12078 3.40872187,16.7301547 C3.10663787,17.1468214 2.75247254,17.4124467 2.34622187,17.5218214 C1.9295552,17.636404 1.51288854,17.6572387 1.09622187,17.5843214 C0.695180536,17.5426547 0.387888536,17.3968214 0.179555203,17.1468214 C-0.0287781303,16.886404 -0.0548194636,16.5791134 0.0962218697,16.2301547 C0.361847203,15.5947374 0.669139203,14.9489054 1.01288854,14.2926547 C3.1118472,10.365572 5.23163787,6.42807072 7.38788854,2.48015472 C7.4399712,2.42807072 7.47122187,2.37598805 7.47122187,2.33432138 C7.77330454,1.72494672 8.13788854,1.16244672 8.5545552,0.646821383 C9.02330454,0.13640405 9.5597632,-0.0719292838 10.1587219,0.0218213829 C10.7680965,0.105154716 11.1847632,0.469737383 11.4087219,1.10515472 C11.6587219,1.92807072 11.8774725,2.39161338 12.0753885,2.50098805 C12.2680965,2.59994672 12.6847632,2.51140405 13.3253885,2.23015472 C14.7420552,1.71973738 16.1170552,1.35515472 17.4503885,1.14682138 C18.7837219,0.928070716 19.8722632,0.974946716 20.7212219,1.29265472 C21.5805965,1.59994672 21.9087219,2.56348805 21.7003885,4.18848805 Z"></path>
            </g>
            <g id="Shape" transform="translate(286.773610, 365.212844)" fill="url(#linearGradient-5)">
                <path d="M21.997191,10.4579655 C20.632607,11.7912988 19.0492737,12.9371322 17.247191,13.8954655 C15.439899,14.8433815 13.9242737,15.4579655 12.7055243,15.7496322 C11.497191,16.0412988 10.247191,16.2079655 8.95552434,16.2496322 C6.88260701,16.3485908 4.98156568,16.0725495 3.24719101,15.4162988 C0.413857678,14.2652575 -0.565308989,12.0725495 0.309691011,8.8329655 C1.13260701,6.05692417 2.78885768,3.88504817 5.28885768,2.31213217 C7.79927368,0.728798833 10.3930243,-0.0316185001 13.059691,0.0204654999 C13.059691,0.0204654999 13.0857323,0.0204654999 13.1430243,0.0204654999 C13.8201083,-0.0316185001 14.4607323,0.0152574999 15.059691,0.166298833 C16.1013577,0.541298833 16.757607,1.15588283 17.0388577,1.99963217 C17.314899,2.8329655 17.127399,3.7652575 16.4763577,4.79129883 C14.9763577,7.0725495 12.934691,8.3433815 10.3513577,8.60379883 C8.64302434,8.76004817 6.98677501,8.67671483 5.39302434,8.35379883 C5.08573234,8.30171483 4.81489901,8.38504817 4.58052434,8.60379883 C4.35656568,8.81213217 4.21594034,9.0725495 4.16385768,9.37463217 C3.70552434,11.3902575 4.33052434,12.6767148 6.03885768,13.2287988 C8.14823234,13.9683815 10.3357323,13.9683815 12.6013577,13.2287988 C15.2263577,12.4110908 17.7159403,10.8694242 20.0805243,8.60379883 C22.4555243,6.3277575 23.8201083,5.2652575 24.184691,5.41629883 C24.559691,5.5725495 24.6690657,6.01004817 24.5180243,6.72879883 C24.1951083,7.88504817 23.3565657,9.12463217 21.997191,10.4579655 Z M7.01802434,4.79129883 C6.87739901,4.9579655 6.77323234,5.1454655 6.70552434,5.35379883 C6.64823234,5.55171483 6.73156568,5.72879883 6.95552434,5.8954655 C7.77323234,6.35379883 8.66385768,6.5204655 9.62219101,6.3954655 C10.5805243,6.2704655 11.3930243,5.91109083 12.059691,5.31213217 C12.7263577,4.7183815 13.0180243,3.97879883 12.934691,3.10379883 C12.8513577,2.80171483 12.6742737,2.61421617 12.4138577,2.54129883 C12.1638577,2.4579655 11.9138577,2.43713217 11.6638577,2.47879883 C9.92427368,2.78609083 8.37739901,3.55692417 7.01802434,4.79129883 Z"></path>
            </g>
            <g id="Shape" transform="translate(299.285388, 361.579942)" fill="url(#linearGradient-6)">
                <path d="M26.8450745,9.81909113 C23.1367412,11.1940911 20.4544492,12.3086738 18.8034078,13.1524245 C17.6054905,13.7513831 16.9179918,14.2461751 16.7409078,14.6315911 C16.5742412,15.0065911 16.7096585,15.7149245 17.1575745,16.7565911 C17.1575745,16.7982578 17.1888238,16.8711751 17.2617412,16.9649245 C17.7617412,18.2045085 18.0586158,19.4857578 18.1575745,20.8190911 C18.2929918,23.5170071 15.9909078,25.3972165 11.2409078,26.4649245 C6.50653316,27.5378411 3.33986649,27.5638829 1.74090783,26.5482578 C0.131533159,25.5222165 -0.363258841,24.2461751 0.261741159,22.7149245 C0.886741159,21.1732578 2.50653316,19.6107578 5.11590783,18.0274245 C7.73049049,16.4336738 9.47007449,15.2878418 10.3450745,14.5899245 C11.2200745,13.8815911 11.4804905,13.1003405 11.1367412,12.2357578 C11.0377825,11.9336738 10.9179918,11.6263831 10.7825745,11.3190911 C10.4752825,10.5847165 10.1575745,9.83471646 9.82424116,9.06909113 C9.21486649,7.65242446 8.95965849,6.27221646 9.05340783,4.92325779 C9.13674116,3.56388313 9.63674116,2.41804979 10.5534078,1.48575779 C11.4804905,0.558673794 12.9179918,0.0638831277 14.8659078,0.00659112769 C15.9752825,-0.035075539 16.9596585,0.121175128 17.8242412,0.464924461 C18.6992412,0.798257794 19.3919492,1.43367379 19.9075745,2.36075779 C20.3242412,2.98575779 20.1888238,3.55867379 19.5117412,4.06909113 C19.0638238,4.41804979 18.5846585,4.45971646 18.0742412,4.19409113 C17.7409078,4.05867379 17.4179918,3.85554979 17.1159078,3.58992446 C17.1159078,3.52221646 17.1159078,3.48575779 17.1159078,3.48575779 C16.9752825,3.40242446 16.8502825,3.31388313 16.7409078,3.21492446 C16.6002825,3.00659113 16.4492412,2.83992446 16.2825745,2.71492446 C15.6679918,2.27221646 15.0534078,2.14200713 14.4284078,2.31909113 C13.8138238,2.48575779 13.3554905,2.95971646 13.0534078,3.73575779 C12.8294492,4.33471646 12.7200745,4.95450846 12.7200745,5.58992446 C12.7617412,6.35554979 12.9336158,7.11075779 13.2409078,7.86075779 C13.4492412,8.30867379 13.6367412,8.71492446 13.8034078,9.08992446 C14.1888238,10.1211751 14.5169492,10.8295085 14.7825745,11.2149245 C15.0429918,11.6055498 15.3554905,11.7722165 15.7200745,11.7149245 C16.0794492,11.6472165 19.3971572,10.4649245 25.6784078,8.17325779 C27.0377825,7.73054979 27.4284078,8.27742446 26.8450745,9.81909113 Z M11.5742412,23.1940911 C13.2096585,22.6524245 13.9075745,21.5586738 13.6575745,19.9024245 C13.6575745,19.7930498 13.6263252,19.6680498 13.5742412,19.5274245 C13.5013252,18.6420071 13.3242412,17.9545085 13.0325745,17.4649245 C12.7513252,16.9805498 12.1211158,16.9961751 11.1367412,17.5065911 C8.69403316,18.8815911 6.43882383,20.4961751 4.36590783,22.3399245 C4.23049049,22.4961751 4.10549049,22.6420071 3.99090783,22.7774245 C3.99090783,22.7774245 3.96486649,22.8190911 3.90757449,22.9024245 C3.77215716,23.0847165 3.75132516,23.2930498 3.84507449,23.5274245 C3.94403316,23.7670071 4.15236649,23.8815911 4.47007449,23.8815911 C6.88674116,24.2722165 9.25653316,24.0430498 11.5742412,23.1940911 Z"></path>
            </g>
            <g id="Shape" transform="translate(322.154949, 356.319519)" fill="url(#linearGradient-7)">
                <path d="M16.4126194,18.19487 C15.1626194,19.6688286 13.6730367,21.0229953 11.9542861,22.25737 C10.2303274,23.4813286 8.2876194,24.2990366 6.12095273,24.7157033 C3.9647034,25.13237 2.29803607,24.9657033 1.1001194,24.2157033 C-0.0925886005,23.455286 -0.316547267,21.7886193 0.433452733,19.2157033 C1.38137007,16.5490366 2.67303673,14.0177873 4.32928607,11.6115366 C4.7147034,11.1011206 5.26678607,10.7365366 5.9751194,10.5282033 C6.4855354,10.4188286 6.93866073,10.5177873 7.32928607,10.81987 C7.7147034,11.1115366 7.8553274,11.4813286 7.74595273,11.9240366 C7.39699407,12.75737 7.00637007,13.6011206 6.57928607,14.44487 C6.14699407,15.2782033 5.8605354,15.830286 5.7251194,16.0907033 C4.89178607,17.5907033 4.30845273,19.1532033 3.9751194,20.7782033 C3.95949407,21.7104953 5.20949407,21.7782033 7.7251194,20.9865366 C10.2355354,20.184454 12.6834527,18.69487 15.0584527,16.5282033 C17.4438687,14.3511206 18.5844941,13.7104953 18.4751194,14.6115366 C18.3605354,15.5177873 17.6730367,16.7104953 16.4126194,18.19487 Z M10.3501194,6.36153663 C10.2355354,6.4604953 10.0011607,6.58028597 9.64178607,6.7157033 C9.27720207,6.8407033 8.89178607,6.93445397 8.4751194,6.98653663 C8.06886873,7.04382863 7.75116073,6.97612063 7.51678607,6.7782033 C7.27720207,6.5854953 7.26678607,6.20528597 7.4751194,5.63236997 C7.8605354,4.67403663 8.25637007,3.83028597 8.6626194,3.0907033 C9.07928607,2.3407033 9.62095273,1.5229953 10.2876194,0.632369967 C10.7147034,0.246952634 11.1730367,0.0386193004 11.6626194,0.00736996705 C12.1626194,-0.0342966996 12.5688687,0.101120634 12.8917861,0.4032033 C13.2251194,0.694869967 13.3136607,1.10112063 13.1626194,1.61153663 C12.6469941,3.4604953 11.7094941,5.04382863 10.3501194,6.36153663 Z"></path>
            </g>
            <g id="Shape" transform="translate(336.105415, 334.081981)" fill="url(#linearGradient-8)">
                <path d="M33.3353304,37.0208333 C33.8353304,37.1614587 34.0905384,37.3489587 34.1061638,37.5833333 C34.1322051,37.8229173 34.1478304,37.9375 34.1478304,37.9375 C33.5749131,38.9114587 32.9290811,39.8020827 32.2103304,40.6041667 C30.5124144,42.4531253 28.5540811,43.9114587 26.3353304,44.9791667 C25.2519971,45.5781253 24.0332464,45.8906253 22.6894971,45.9166667 C19.5332464,45.9479173 18.1061638,44.4114587 18.3978304,41.3125 C18.5228304,40.6614587 18.6790811,40.0156253 18.8769971,39.375 C18.9863718,39.0833333 19.0749131,38.7864587 19.1478304,38.4791667 C19.4499131,37.3541667 19.5436638,36.7291667 19.4186638,36.6041667 C19.2936638,36.4791667 18.9186638,36.7916667 18.2936638,37.5416667 C18.1269971,37.6979173 17.9707478,37.8489587 17.8353304,38 C16.8874144,39.114584 15.9186638,40.2031253 14.9186638,41.2708333 C13.0957478,43.3125 11.0124144,45.0312507 8.66866377,46.4166667 C7.27803844,47.2239587 5.81449711,47.6406253 4.27283044,47.6666667 C1.74678911,47.7656253 0.345747773,46.5937493 0.0644971065,44.1458333 C-0.0605028935,43.1614587 -0.00321089349,42.1875 0.231163773,41.2291667 C1.30408111,37.260416 3.38741444,34.25 6.50199711,32.2083333 C9.61137177,30.1562507 13.1582464,29.4531253 17.1478304,30.1041667 C18.2728304,30.4270827 19.0905384,30.125 19.6061638,29.2083333 C19.8405384,28.8489587 20.0644971,28.4791667 20.2728304,28.1041667 C21.3561638,26.2708333 22.4290811,24.4375 23.5019971,22.6041667 C25.4707478,19.0520827 27.4603304,15.4791667 29.4603304,11.8958333 C31.0853304,9.07812533 32.7103304,6.239584 34.3353304,3.375 C34.8197051,2.489584 35.3457478,1.64062533 35.9186638,0.833333333 C36.1790811,0.432292 36.5019971,0.197917333 36.8769971,0.125 C37.2624144,0.0416666667 37.6738718,0 38.1061638,0 C38.1999131,0 38.3040811,0 38.4186638,0 C38.8874144,0.0156253333 39.2624144,0.140625333 39.5436638,0.375 C39.8197051,0.614584 39.8665798,0.927082667 39.6894971,1.3125 C39.3822051,2.30208267 39.0124144,3.22916667 38.5853304,4.10416667 C36.3874144,8.41145867 34.3144971,12.7656253 32.3561638,17.1666667 C30.3978304,21.557292 28.4655384,25.9739587 26.5644971,30.4166667 C25.9394971,31.9739587 25.2988718,33.5156253 24.6478304,35.0416667 C23.8561638,36.8489587 23.1947051,38.6979173 22.6686638,40.5833333 C22.5124144,41 22.4394971,41.4166667 22.4394971,41.8333333 C22.4394971,42.239584 22.6322051,42.5989587 23.0228304,42.9166667 C23.2728304,43.0833333 23.5332464,43.119792 23.8144971,43.0208333 C24.1061638,42.9114587 24.4082464,42.7864587 24.7311638,42.6458333 C24.7988718,42.5937493 24.8822051,42.5364587 24.9811638,42.4791667 C27.2155384,41.2031253 29.2624144,39.682292 31.1269971,37.9166667 C31.4290811,37.614584 31.7519971,37.3541667 32.0853304,37.1458333 C32.4290811,36.9270827 32.8457478,36.885416 33.3353304,37.0208333 Z M16.0228304,34.5833333 C16.2728304,34.1562507 16.3405384,33.75 16.2311638,33.375 C16.1322051,32.989584 15.8822051,32.6979173 15.4811638,32.5 C14.6061638,32.0156253 13.6790811,31.9479173 12.7103304,32.2916667 C10.2780384,32.989584 8.23637177,34.3489587 6.58533044,36.375 C4.92908111,38.4062507 4.02283044,40.6458333 3.85616377,43.1041667 C3.89783044,43.2187493 3.91866377,43.3020827 3.91866377,43.3541667 C3.91866377,43.5625 3.91866377,43.7708333 3.91866377,43.9791667 C4.12699711,45.1041667 4.81970511,45.3281253 6.00199711,44.6458333 C7.19470511,43.9687493 8.52803844,42.864584 10.0019971,41.3333333 C11.4863718,39.807292 12.8144971,38.3541667 13.9811638,36.9791667 C15.1582464,35.5937493 15.8405384,34.7916667 16.0228304,34.5833333 Z"></path>
            </g>
            <g id="Shape" transform="translate(365.481260, 365.825720)" fill="url(#linearGradient-9)">
                <path d="M22.0048103,10.5958333 C20.6298103,11.9031253 19.0256436,13.0229173 17.1923103,13.95 C15.3693943,14.8666667 13.8485596,15.4656253 12.6298103,15.7416667 C11.4214769,16.0229173 10.1714769,16.1687493 8.87981028,16.1791667 C6.80689294,16.2520827 4.90585161,15.944792 3.17147694,15.2625 C0.369394275,14.069792 -0.578523058,11.8614587 0.338143608,8.6375 C1.20272761,5.87708267 2.89022628,3.72083333 5.42147694,2.17916667 C7.96314361,0.6375 10.5673103,-0.0812506667 13.2339769,0.0125 C13.2339769,0.0125 13.2600183,0.0125 13.3173103,0.0125 C13.9943943,-0.0291666667 14.6350183,0.0333333333 15.2339769,0.2 C16.2600183,0.590625333 16.9058516,1.210416 17.1714769,2.05416667 C17.4318929,2.90312533 17.2339769,3.835416 16.5673103,4.84583333 C15.0360609,7.09583333 12.9735596,8.335416 10.3798103,8.55416667 C8.67147694,8.67916667 7.02564361,8.575 5.44231028,8.24166667 C5.13501828,8.17395867 4.86418494,8.25208267 4.62981028,8.47083333 C4.39022628,8.67916667 4.24439428,8.939584 4.19231028,9.24166667 C3.70272761,11.2416667 4.30689294,12.5333333 6.00481028,13.1166667 C8.09855961,13.882292 10.2860609,13.9187493 12.5673103,13.2208333 C15.2027276,12.444792 17.7235596,10.939584 20.1298103,8.7 C22.5308516,6.46562533 23.9110609,5.42916667 24.2756436,5.59583333 C24.6506436,5.75208267 24.7548103,6.189584 24.5881436,6.90833333 C24.2548103,8.04895867 23.3902263,9.27812533 22.0048103,10.5958333 Z M7.10897694,4.7 C6.96835161,4.86666667 6.86418494,5.04895867 6.79647694,5.24166667 C6.73918494,5.439584 6.81731028,5.62708267 7.02564361,5.80416667 C7.84335161,6.27812533 8.73397694,6.460416 9.69231028,6.34583333 C10.6506436,6.23645867 11.4683516,5.8875 12.1506436,5.30416667 C12.8277276,4.710416 13.1350183,3.97083333 13.0673103,3.09583333 C12.9839769,2.79374933 12.8068929,2.60625067 12.5464769,2.53333333 C12.2964769,2.45 12.0464769,2.42395867 11.7964769,2.45 C10.0568929,2.73125067 8.49439428,3.48125067 7.10897694,4.7 Z"></path>
            </g>
            <g id="Path" transform="translate(383.530952, 367.135624)" fill="url(#linearGradient-10)">
                <path d="M32.1886897,5.80248982 C32.5480644,6.27644849 32.0636897,7.12540582 30.7303564,8.34415649 C29.3970231,9.56811515 27.9803564,10.5837392 26.4803564,11.3858232 C24.9803564,12.1931152 23.2511897,13.0056152 21.2928564,13.8233232 C19.9855644,14.3545738 18.6105644,14.5056152 17.1678564,14.2816565 C15.7199404,14.0629072 15.0116071,13.1670725 15.0428564,11.5941565 C15.0688977,10.0264485 15.4647311,8.48478182 16.2303564,6.96915649 C16.9803564,5.38582315 17.1470231,4.56811515 16.7303564,4.51082315 C16.3241057,4.44311515 15.4803564,4.81290715 14.1886897,5.61498982 C10.7824391,7.75561515 7.61056441,10.2087392 4.66785641,12.9691565 C3.87618974,13.9014485 2.88660707,14.4014485 1.68868974,14.4691565 C1.07931507,14.4587392 0.605356405,14.2556152 0.272023072,13.8649898 C-0.0613102612,13.4795738 -0.0873515946,13.0629072 0.188689739,12.6149898 C2.31368974,8.83894849 4.46994041,5.10457382 6.66785641,1.40665649 C7.15223107,0.656656485 7.86056441,0.193115152 8.79285641,0.010823152 C9.19389774,-0.041260848 9.56368974,0.0941564853 9.89702307,0.427489819 C10.2303564,0.750405819 10.3970231,1.10457382 10.3970231,1.48998982 C10.3397311,1.86498982 10.1730644,2.30248982 9.89702307,2.80248982 C9.78243907,3.10978182 9.66785641,3.40665649 9.54285641,3.69832315 C9.42827374,3.97957382 9.38660707,4.21394849 9.41785641,4.40665649 C9.45952307,4.58894849 9.61056441,4.64624049 9.87618974,4.57332315 C10.2199404,4.39624049 10.5741057,4.19832315 10.9386897,3.98998982 C11.8397311,3.50561515 12.7095231,3.03165649 13.5428564,2.57332315 C14.2616071,2.17228182 15.0272311,1.81811515 15.8345231,1.51082315 C16.6366071,1.19311515 17.4699404,0.979573819 18.3345231,0.864989819 C19.7616071,0.797281819 20.7563977,1.13582315 21.3136897,1.88582315 C21.8813977,2.62540582 21.9386897,3.63582315 21.4803564,4.92748982 C20.9803564,6.08373915 20.4595231,7.22957382 19.9178564,8.36498982 C19.2616071,9.43790715 19.1366071,10.2556152 19.5428564,10.8233232 C19.9595231,11.3962405 21.9386897,10.7816565 25.4803564,8.98998982 L28.1261897,7.51082315 C30.6522311,5.96915649 32.0063977,5.40144849 32.1886897,5.80248982 Z"></path>
            </g>
            <g id="Path" transform="translate(412.696222, 364.484088)" fill="url(#linearGradient-11)">
                <path d="M26.1966662,8.2629717 C26.3060409,8.27859703 26.4362489,8.3150557 26.5924996,8.36713836 C26.7435409,8.42443036 26.8685409,8.50255436 26.9674996,8.59630503 C27.2695822,8.91922103 27.2904169,9.28380503 27.0299996,9.7004717 C26.6966662,10.0494304 26.3685409,10.341097 26.0508329,10.5754717 C24.2018742,12.2004717 22.1654169,13.5494304 19.9466662,14.6171384 C16.4310409,16.2994304 12.5924996,17.1067224 8.42583291,17.033805 C6.86854091,17.0494304 5.27999957,16.7577637 3.65499957,16.158805 C0.681040908,14.898389 -0.475208425,12.6952637 0.175832908,9.55463836 C0.925832908,6.6379717 2.63416624,4.25255436 5.30083291,2.3879717 C7.97791557,0.512971698 10.8112489,-0.257861635 13.8008329,0.0754716981 C14.3529156,0.190055698 14.9154169,0.325471698 15.4883329,0.492138365 C15.9987502,0.731722365 16.3737502,1.05463836 16.6133329,1.47130503 C16.8633329,1.8879717 16.8841662,2.22130503 16.6758329,2.47130503 C16.0924996,3.0702637 15.4362489,3.2108877 14.7174996,2.8879717 C13.6445822,2.3879717 12.6549996,2.23693036 11.7383329,2.42963836 C10.8320836,2.61193036 9.91541691,3.0754717 8.98833291,3.8254717 C8.08208357,4.48172236 7.09770757,5.4400557 6.02999957,6.7004717 C4.97270757,7.96609703 4.28520757,9.25255436 3.96749957,10.5546384 C3.64458224,11.8619304 4.20708357,12.9452637 5.65499957,13.8046384 C7.26437424,14.5702637 8.93104091,14.783805 10.6549996,14.4504717 C14.9466662,13.7004717 18.9518742,12.1796384 22.6758329,9.8879717 C22.9935409,9.75255436 23.2904169,9.5702637 23.5716662,9.34630503 C23.9727076,9.0702637 24.3841662,8.84109703 24.8008329,8.65880503 C25.2174996,8.46609703 25.6810409,8.3358877 26.1966662,8.2629717 Z"></path>
            </g>
            <g id="Shape" transform="translate(434.766409, 367.419872)" fill="url(#linearGradient-12)">
                <path d="M22.0191496,10.6835876 C20.6129003,11.9752543 18.9983163,13.0742129 17.1649829,13.9752543 C15.3316496,14.8815049 13.8003989,15.4648383 12.5816496,15.7252543 C11.3576909,15.9752543 10.1024829,16.1002543 8.81081626,16.1002543 C6.73790026,16.1315049 4.8420656,15.7981716 3.12331626,15.1002543 C0.321233595,13.8658796 -0.595433071,11.6419209 0.373316262,8.43358759 C1.27956693,5.67317159 3.00352426,3.54817159 5.56081626,2.05858759 C8.11290026,0.558587587 10.7274829,-0.11849508 13.3941496,0.01692092 C13.3941496,0.01692092 13.4201909,0.01692092 13.4774829,0.01692092 C14.1545669,-0.0247457467 14.7951909,0.0377542533 15.3941496,0.20442092 C16.4201909,0.610670253 17.0608163,1.23567025 17.3108163,2.07942092 C17.5608163,2.92837959 17.3420656,3.85025425 16.6649829,4.85025425 C15.0920656,7.08983825 13.0191496,8.30337959 10.4358163,8.49608759 C8.7118576,8.59504625 7.06081626,8.46483825 5.47748293,8.10025425 C5.17019093,8.03254625 4.8993576,8.10025425 4.66498293,8.30858759 C4.42539893,8.51692092 4.27956693,8.77733692 4.22748293,9.07942092 C3.6962336,11.0794209 4.27956693,12.3867129 5.97748293,12.9960876 C8.0712336,13.7877543 10.2587323,13.8502543 12.5399829,13.1835876 C15.1910243,12.4492129 17.7326909,10.9856703 20.1649829,8.78775425 C22.5920656,6.57942092 23.9879003,5.55858759 24.3524829,5.72525425 C24.7274829,5.88150492 24.8212336,6.31900359 24.6441496,7.03775425 C24.2951909,8.17837959 23.4201909,9.39192092 22.0191496,10.6835876 Z M7.2066496,4.57942092 C7.06602426,4.74608759 6.9618576,4.93358759 6.8941496,5.14192092 C6.8212336,5.33983825 6.8941496,5.51692092 7.10248293,5.68358759 C7.92019093,6.17317159 8.81081626,6.36587959 9.7691496,6.26692092 C10.7274829,6.17317159 11.5451909,5.83983825 12.2274829,5.26692092 C12.9201909,4.68358759 13.2326909,3.94921292 13.1649829,3.05858759 C13.0920656,2.75650492 12.9253989,2.55858759 12.6649829,2.47525425 C12.4149829,2.39192092 12.1649829,2.37108759 11.9149829,2.41275425 C10.1753989,2.66275425 8.60769093,3.38671292 7.2066496,4.57942092 Z"></path>
            </g>
            <g id="Group" transform="translate(289.786347, 387.652060)" fill="#E1C25F" fill-rule="nonzero">
                <polygon id="Path" points="2.75520907 9.54166667 5.0312504 9.54166667 7.05208373 1.64062533 7.07812507 1.64062533 9.05729173 9.54166667 11.3437504 9.54166667 14.1041664 0 12.3802091 0 10.2135424 7.95312533 10.1874997 7.95312533 8.19791707 0 5.9062504 0 3.92708373 7.95312533 3.90104107 7.95312533 1.70833307 0 -4.07081776e-16 0"></polygon>
            </g>
            <g id="Group" transform="translate(307.236812, 387.652060)" fill="#E1C25F" fill-rule="nonzero">
                <polygon id="Path" points="-1.48029737e-16 9.54166667 6.74479067 9.54166667 6.74479067 8.14062533 1.61458267 8.14062533 1.61458267 5.27604133 6.067708 5.27604133 6.067708 3.994792 1.61458267 3.994792 1.61458267 1.39583333 6.60937467 1.39583333 6.60937467 0 -1.48029737e-16 0"></polygon>
            </g>
            <g id="Group" transform="translate(317.044501, 387.313519)" fill="#E1C25F" fill-rule="nonzero">
                <path d="M4.22916533,10.2187493 C6.515624,10.2187493 8.06249867,8.97916667 8.06249867,7.10937467 C8.06249867,5.692708 7.10937467,4.817708 5.11458267,4.42708267 L3.66145733,4.130208 C2.55729067,3.90624933 2.08854133,3.5 2.08854133,2.8125 C2.08854133,1.96354133 2.80208267,1.33333333 3.93229067,1.33333333 C5.010416,1.33333333 5.817708,2.03124933 5.93749867,3.08333333 L7.48437467,2.73437467 C7.22916533,1.08854133 5.80208267,0 3.93229067,0 C1.85937467,0 0.432290667,1.21354133 0.432290667,3 C0.432290667,4.390624 1.29166667,5.197916 3.17708267,5.58854133 L4.61979067,5.89583333 C5.885416,6.16666667 6.42187467,6.59374933 6.42187467,7.322916 C6.42187467,8.21354133 5.59895733,8.885416 4.270832,8.885416 C2.80208267,8.885416 1.68229067,7.96874933 1.578124,6.65104133 L-1.11022302e-16,6.947916 C0.218749333,8.95312533 1.953124,10.2187493 4.22916533,10.2187493 Z" id="Path"></path>
            </g>
            <g id="Group" transform="translate(327.985771, 387.652060)" fill="#E1C25F" fill-rule="nonzero">
                <polygon id="Path" points="3.04166667 9.54166667 4.71354133 9.54166667 4.71354133 1.46354133 7.73958267 1.46354133 7.73958267 0 0 0 0 1.46354133 3.04166667 1.46354133"></polygon>
            </g>
            <g id="Group" transform="translate(344.781798, 387.339560)" fill="#E1C25F" fill-rule="nonzero">
                <path d="M3.6984141,0 C0.969247429,0 -0.0255445708,2.38541733 0.000496762575,5.9375 C0.000496762575,8.85937467 1.54737276,10.125 3.6984141,10.125 C5.85466476,10.125 7.3338301,8.76562533 7.34945543,6.8125 C7.34945543,4.994792 5.96403943,3.71875067 4.14633143,3.71875067 C2.9484141,3.71875067 2.1411221,4.10416667 1.58903943,4.817708 C1.61508076,2.61458267 2.4484141,1.33333333 3.7557061,1.33333333 C4.92758076,1.33333333 5.39633143,2.16666667 5.53174743,3.380208 L7.0786221,3.15104133 C6.80778876,1.255208 5.7609141,0 3.6984141,0 Z M3.71403943,4.91666667 C4.84424743,4.91666667 5.66716343,5.692708 5.66716343,6.78645867 C5.66716343,7.91666667 4.84424743,8.70833333 3.71403943,8.72395867 C2.53174743,8.72395867 1.68278876,7.927084 1.68278876,6.78645867 C1.68278876,5.682292 2.53174743,4.90104133 3.71403943,4.91666667 Z" id="Shape"></path>
            </g>
            <g id="Group" transform="translate(355.410637, 387.652060)" fill="#E1C25F" fill-rule="nonzero">
                <path d="M3.78125067,9.84895867 C5.989584,9.84895867 7.45833333,8.52083333 7.45833333,6.44791733 C7.45833333,4.52083333 6.19270933,3.244792 4.32291733,3.244792 C3.609376,3.244792 2.89583333,3.46874933 2.505208,3.83333333 L2.69270933,1.33333333 L6.52604267,1.33333333 L6.52604267,0 L1.239584,0 L0.942709333,4.89583333 L2.26041733,5.182292 C2.57291733,4.73437467 3.20312533,4.442708 3.82291733,4.442708 C5.005208,4.442708 5.77604267,5.21874933 5.77604267,6.432292 C5.77604267,7.65625067 4.97916667,8.45312533 3.77083333,8.45312533 C2.58333333,8.45312533 1.734376,7.65625067 1.65625067,6.47395867 L0,6.79687467 C0.151042667,8.614584 1.682292,9.84895867 3.78125067,9.84895867 Z" id="Path"></path>
            </g>
            <g id="Group" transform="translate(371.708016, 387.652060)" fill="#E1C25F" fill-rule="nonzero">
                <polygon id="Path" points="3.04166667 9.54166667 4.71354133 9.54166667 4.71354133 1.46354133 7.73958267 1.46354133 7.73958267 0 0 0 0 1.46354133 3.04166667 1.46354133"></polygon>
            </g>
            <g id="Group" transform="translate(382.539107, 387.313519)" fill="#E1C25F" fill-rule="nonzero">
                <path d="M5.19791733,10.2187493 C8.34895867,10.2187493 10.4062507,8.197916 10.4062507,5.11458267 C10.4062507,2.03124933 8.34895867,0 5.19791733,0 C2.046876,0 0,2.03124933 0,5.11458267 C0,8.197916 2.046876,10.2187493 5.19791733,10.2187493 Z M5.19791733,8.765624 C3.07291733,8.765624 1.671876,7.30729067 1.671876,5.11458267 C1.671876,2.92187467 3.07291733,1.46874933 5.19791733,1.46874933 C7.32291733,1.46874933 8.72395867,2.92187467 8.72395867,5.11458267 C8.72395867,7.30729067 7.32291733,8.765624 5.19791733,8.765624 Z" id="Shape"></path>
            </g>
            <g id="Group" transform="translate(395.970895, 387.652060)" fill="#E1C25F" fill-rule="nonzero">
                <polygon id="Path" points="2.75520907 9.54166667 5.0312504 9.54166667 7.05208373 1.64062533 7.07812507 1.64062533 9.05729173 9.54166667 11.3437504 9.54166667 14.1041664 0 12.3802091 0 10.2135424 7.95312533 10.1874997 7.95312533 8.19791707 0 5.9062504 0 3.92708373 7.95312533 3.90104107 7.95312533 1.70833307 0 -4.07081776e-16 0"></polygon>
            </g>
            <g id="Group" transform="translate(413.421364, 387.652060)" fill="#E1C25F" fill-rule="nonzero">
                <polygon id="Path" points="-1.48029737e-16 9.54166667 6.74479067 9.54166667 6.74479067 8.14062533 1.61458267 8.14062533 1.61458267 5.27604133 6.067708 5.27604133 6.067708 3.994792 1.61458267 3.994792 1.61458267 1.39583333 6.60937467 1.39583333 6.60937467 0 -1.48029737e-16 0"></polygon>
            </g>
            <g id="Group" transform="translate(423.729057, 387.652060)" fill="#E1C25F" fill-rule="nonzero">
                <path d="M7,9.79687467 C7.71354133,9.79687467 8.34374933,9.45833333 8.77604133,8.94791733 L8.25,8.08854133 C8.04687467,8.39583333 7.765624,8.59895867 7.49479067,8.59895867 C7.203124,8.59895867 7.010416,8.369792 6.93229067,8.0625 L6.54166667,6.635416 C6.380208,6.08333333 6.08333333,5.65104133 5.572916,5.42187467 L5.572916,5.41145867 C7.09374933,5.14062533 8.010416,4.14583333 8.010416,2.83854133 C8.010416,1.14062533 6.59374933,0 4.49479067,0 L0,0 L0,9.54166667 L1.66666667,9.54166667 L1.66666667,5.71874933 L3.635416,5.71874933 C4.23958267,5.71874933 4.697916,6.17708267 4.885416,6.807292 L5.385416,8.52083333 C5.61458267,9.28645867 6.15104133,9.79687467 7,9.79687467 Z M1.66666667,4.442708 L1.66666667,1.33333333 L4.34895733,1.33333333 C5.53124933,1.33333333 6.328124,1.97916667 6.328124,2.89062533 C6.328124,3.82291733 5.53124933,4.442708 4.34895733,4.442708 L1.66666667,4.442708 Z" id="Shape"></path>
            </g>
            <g id="Clipped" transform="translate(257.526041, 380.421873)">
                <mask id="mask-14" fill="white">
                    <use xlink:href="#path-13"></use>
                </mask>
                <g id="Path"></g>
                <polygon id="Path" fill="url(#linearGradient-15)" mask="url(#mask-14)" points="212.958333 7 207.4375 8.5625 205.848959 13.989584 204.255209 8.5625 201.031251 7.65104267 0.046876 7.65104267 0.046876 6.34895867 201.031251 6.34895867 204.255209 5.432292 205.848959 0.005208 207.4375 5.432292"></polygon>
            </g>
            <g id="Clipped" transform="translate(300.000000, 311.333332)">
                <mask id="mask-17" fill="white">
                    <use xlink:href="#path-16"></use>
                </mask>
                <g id="Path"></g>
                <path d="M19.625,11.4635413 C19.744792,12.5468747 20.0364587,13.5729173 20.510416,14.557292 C20.9791667,15.5364587 21.5937493,16.4114587 22.364584,17.1770827 C23.130208,17.9479173 24.005208,18.567708 24.9791667,19.0364587 C25.9583333,19.505208 26.989584,19.7968747 28.067708,19.9166667 C31.4791667,20.255208 34.8958333,20.4114587 38.317708,20.385416 C34.8958333,20.3593747 31.4739587,20.5156253 28.067708,20.8541667 C26.989584,20.9687493 25.9583333,21.2656253 24.9791667,21.7343747 C24.005208,22.2031253 23.130208,22.8229173 22.364584,23.5937493 C21.5937493,24.3593747 20.9791667,25.2343747 20.510416,26.2135413 C20.0364587,27.1979173 19.744792,28.2239587 19.625,29.307292 C19.2864587,32.7187493 19.130208,36.1406253 19.1614587,39.5729173 C19.1875,36.1406253 19.0312507,32.7187493 18.692708,29.307292 C18.5729173,28.2239587 18.2812507,27.1979173 17.8125,26.2135413 C17.3437493,25.2343747 16.7239587,24.3593747 15.9583333,23.5937493 C15.192708,22.8229173 14.317708,22.2031253 13.3385413,21.7343747 C12.3593747,21.2656253 11.3333333,20.9687493 10.25,20.8541667 C6.84374933,20.5156253 3.42708267,20.3593747 0,20.385416 C3.42708267,20.4114587 6.84374933,20.255208 10.25,19.9166667 C11.3333333,19.7968747 12.3593747,19.505208 13.3385413,19.0364587 C14.317708,18.567708 15.192708,17.9479173 15.9583333,17.1770827 C16.7239587,16.4114587 17.3437493,15.5364587 17.8125,14.557292 C18.2812507,13.5729173 18.5729173,12.5468747 18.692708,11.4635413 C19.0312507,8.05208267 19.1875,4.625 19.1614587,1.19791733 C19.130208,4.625 19.2864587,8.05208267 19.625,11.4635413 Z" id="Path" fill="url(#linearGradient-18)" mask="url(#mask-17)"></path>
            </g>
            <g id="Clipped" transform="translate(326.000000, 299.999999)">
                <mask id="mask-20" fill="white">
                    <use xlink:href="#path-19"></use>
                </mask>
                <g id="Path"></g>
                <path d="M12.6041667,6.34895867 C12.6770827,7.010416 12.8593747,7.64062533 13.1458333,8.23437467 C13.432292,8.83333333 13.807292,9.369792 14.2760413,9.83854133 C14.744792,10.307292 15.2760413,10.6875 15.875,10.9739587 C16.4739587,11.260416 17.0989587,11.4375 17.760416,11.510416 C19.8385413,11.7187493 21.9270827,11.8125 24.0208333,11.7968747 C21.9270827,11.7812507 19.8385413,11.875 17.760416,12.0833333 C17.0989587,12.1562507 16.4739587,12.3333333 15.875,12.619792 C15.2760413,12.9062507 14.744792,13.2864587 14.2760413,13.755208 C13.807292,14.2239587 13.432292,14.755208 13.1458333,15.3541667 C12.8593747,15.9531253 12.6770827,16.5833333 12.6041667,17.244792 C12.3958333,19.3281253 12.3020827,21.4166667 12.317708,23.510416 C12.3385413,21.4166667 12.239584,19.3281253 12.0364587,17.244792 C11.9635413,16.5833333 11.7812507,15.9531253 11.494792,15.3541667 C11.2083333,14.760416 10.8333333,14.2239587 10.364584,13.755208 C9.89583333,13.2864587 9.364584,12.9062507 8.76562533,12.619792 C8.16666667,12.3333333 7.54166667,12.1562507 6.880208,12.0833333 C4.80208267,11.875 2.71354133,11.7812507 0.619792,11.7968747 C2.71354133,11.8125 4.80208267,11.7187493 6.880208,11.510416 C7.54166667,11.4375 8.16666667,11.260416 8.76562533,10.9739587 C9.364584,10.6875 9.89583333,10.307292 10.364584,9.83854133 C10.8333333,9.369792 11.2135413,8.83333333 11.5,8.23437467 C11.7864587,7.64062533 11.9635413,7.010416 12.0364587,6.34895867 C12.244792,4.26562533 12.3385413,2.17708267 12.317708,0.0781253333 C12.3020827,2.17708267 12.3958333,4.26562533 12.6041667,6.34895867 Z" id="Path" fill="url(#linearGradient-21)" mask="url(#mask-20)"></path>
            </g>
        </g>
    </g>
</svg>